<?xml version="1.0" encoding="UTF-8" standalone="no"?>
<!-- Created with Inkscape (http://www.inkscape.org/) -->

<svg
   xmlns:dc="http://purl.org/dc/elements/1.1/"
   xmlns:cc="http://creativecommons.org/ns#"
   xmlns:rdf="http://www.w3.org/1999/02/22-rdf-syntax-ns#"
   xmlns:svg="http://www.w3.org/2000/svg"
   xmlns="http://www.w3.org/2000/svg"
   xmlns:sodipodi="http://sodipodi.sourceforge.net/DTD/sodipodi-0.dtd"
   xmlns:inkscape="http://www.inkscape.org/namespaces/inkscape"
   version="1.1"
   id="svg2"
   width="100"
   height="100"
   viewBox="0 0 99.999998 99.999998"
   sodipodi:docname="favicon.svg"
   inkscape:version="0.92.4 (5da689c313, 2019-01-14)">
  <metadata
     id="metadata8">
    <rdf:RDF>
      <cc:Work
         rdf:about="">
        <dc:format>image/svg+xml</dc:format>
        <dc:type
           rdf:resource="http://purl.org/dc/dcmitype/StillImage" />
        <dc:title></dc:title>
      </cc:Work>
    </rdf:RDF>
  </metadata>
  <defs
     id="defs6" />
  <sodipodi:namedview
     pagecolor="#ffffff"
     bordercolor="#666666"
     borderopacity="1"
     objecttolerance="10"
     gridtolerance="10"
     guidetolerance="10"
     inkscape:pageopacity="0"
     inkscape:pageshadow="2"
     inkscape:window-width="1920"
     inkscape:window-height="1016"
     id="namedview4"
     showgrid="false"
     inkscape:zoom="5.6568544"
     inkscape:cx="18.587978"
     inkscape:cy="56.300749"
     inkscape:window-x="0"
     inkscape:window-y="27"
     inkscape:window-maximized="1"
     inkscape:current-layer="layer1"
     units="px" />
  <g
     inkscape:groupmode="layer"
     id="layer1"
     inkscape:label="finger"
     style="display:inline"
     transform="translate(0,-3100.0002)">
    <path
       style="fill:#000000;stroke-width:0.01217086"
       d="m 84.883262,3194.9412 c -0.01371,-0.1116 -0.03099,-0.3331 -0.06073,-0.7793 -0.0164,-0.2459 -0.0331,-0.4861 -0.03713,-0.534 -0.004,-0.048 -0.0044,-0.084 -6.8e-4,-0.08 0.01157,0.012 0.06556,0.358 0.08521,0.5457 0.01796,0.1717 0.03963,0.9066 0.02674,0.9066 -0.0034,0 -0.0094,-0.026 -0.01344,-0.059 z m -0.132616,-1.5523 c -0.0045,-0.025 -0.02987,-0.1165 -0.05627,-0.2018 -0.118774,-0.3839 -0.232401,-0.6235 -0.665732,-1.4034 -0.301838,-0.5432 -0.466335,-0.8691 -0.739635,-1.4654 -0.922237,-2.012 -1.449845,-3.5858 -1.569646,-4.6819 -0.01657,-0.1515 -0.018,-0.2333 -0.0092,-0.5154 0.0057,-0.1844 0.0101,-0.5169 0.0097,-0.7389 -0.001,-0.5556 -0.02963,-0.7917 -0.164878,-1.3598 -0.148244,-0.6227 -0.15568,-0.6885 -0.154404,-1.3661 10e-4,-0.5131 0.0078,-0.7146 0.05295,-1.5772 0.01361,-0.2596 0.02558,-0.5447 0.0266,-0.6336 l 0.0017,-0.1618 -0.04404,-0.093 c -0.07706,-0.1624 -0.201196,-0.2908 -0.368108,-0.3808 -0.216477,-0.1166 -0.481389,-0.1245 -0.752933,-0.022 -0.256941,0.097 -0.561882,0.3166 -0.806185,0.582 -0.202529,0.22 -0.284775,0.4106 -0.254073,0.5887 0.0265,0.1538 0.102758,0.2725 0.446261,0.6946 0.245555,0.3018 0.392754,0.5619 0.496669,0.8778 0.0317,0.097 0.08188,0.2368 0.111476,0.312 0.09871,0.2505 0.176196,0.5552 0.225805,0.8878 0.03416,0.229 0.03724,0.7533 0.0057,0.9695 -0.0476,0.3261 -0.116498,0.553 -0.27129,0.8935 -0.249627,0.5489 -0.39369,0.9532 -0.750011,2.1049 -0.05917,0.1913 -0.115494,0.3589 -0.125165,0.3726 -0.01711,0.024 -0.01796,0.024 -0.03137,-0.013 -0.057,-0.154 -0.293197,-1.2666 -0.435056,-2.0491 -0.11929,-0.658 -0.181363,-1.0598 -0.257104,-1.6641 -0.07585,-0.6051 -0.181241,-1.0277 -0.33045,-1.3248 -0.113698,-0.2264 -0.23119,-0.3149 -0.328913,-0.2478 -0.142634,0.098 -0.226998,0.4679 -0.270827,1.1876 -0.09718,1.596 -0.392986,3.8407 -0.559385,4.2449 -0.04308,0.1046 -0.06471,0.07 -0.08451,-0.1369 -0.02626,-0.2738 -0.09808,-0.7246 -0.234074,-1.469 -0.04929,-0.2698 -0.105024,-0.5771 -0.12386,-0.683 -0.02674,-0.1503 -0.05283,-0.2456 -0.119083,-0.4347 -0.113498,-0.3239 -0.300436,-0.8119 -0.363938,-0.95 -0.0755,-0.1642 -0.100945,-0.2901 -0.392751,-1.9436 -0.170487,-0.9659 -0.230219,-1.2858 -0.393104,-2.1049 -0.164766,-0.8287 -0.21479,-1.0735 -0.218511,-1.0696 -0.002,0 -0.09731,0.8805 -0.211932,1.9523 -0.36173,3.3824 -0.424755,3.9477 -0.43775,3.9264 -0.0052,-0.01 -0.0096,-0.063 -0.0098,-0.1211 -2.99e-4,-0.1117 -0.0279,-0.6294 -0.04793,-0.9003 -0.03171,-0.4284 -0.06039,-0.7116 -0.103204,-1.0184 -0.01521,-0.109 -0.01765,-0.1966 -0.01201,-0.4346 0.0078,-0.3273 0.01851,-0.4886 0.09798,-1.4717 0.07008,-0.8669 0.07389,-0.9161 0.09443,-1.2232 0.04113,-0.6148 0.04748,-0.7849 0.04773,-1.2791 2.96e-4,-0.5796 -0.01238,-0.7441 -0.07736,-1.0055 -0.01874,-0.075 -0.125206,-0.5059 -0.236584,-0.9567 -0.265395,-1.0741 -0.358917,-1.4261 -0.393976,-1.4826 -0.0246,-0.04 -0.08332,0.033 -0.402306,0.4973 -0.260897,0.3798 -0.325862,0.4523 -0.67842,0.7567 -0.395466,0.3414 -0.581775,0.5394 -0.659275,0.7005 -0.138586,0.2882 -0.165848,0.723 -0.09109,1.453 0.0098,0.096 0.06142,0.4868 0.114736,0.8693 l 0.09693,0.6955 2.96e-4,0.2856 c 6.81e-4,0.4864 -0.06685,0.9214 -0.231342,1.4906 -0.09995,0.3459 -0.262102,0.7697 -0.277852,0.7262 -0.0037,-0.01 -0.04247,-0.1193 -0.08611,-0.2422 -0.220641,-0.6215 -0.493829,-1.2612 -0.603373,-1.413 -0.108028,-0.1497 -0.122404,-0.2887 -0.147798,-1.4293 -0.01782,-0.8005 -0.03204,-1.1607 -0.05403,-1.3677 -0.04657,-0.4386 -0.132279,-0.9164 -0.255094,-1.4219 -0.06182,-0.2545 -0.196403,-0.742 -0.241946,-0.8765 -0.01735,-0.051 -0.09186,-0.1472 -0.397081,-0.5114 -0.206649,-0.2466 -0.378821,-0.4473 -0.382604,-0.4461 -0.0083,0 -0.377572,0.4187 -0.547634,0.617 -0.223345,0.2604 -0.255019,0.307 -0.291674,0.4298 -0.05171,0.1732 -0.26981,0.8062 -0.389284,1.1299 -0.328797,0.8907 -0.56598,1.3826 -0.65988,1.3686 -0.04092,-0.01 -0.05416,-0.059 -0.06651,-0.2661 -0.01194,-0.1998 -0.0281,-0.3302 -0.07298,-0.5883 -0.0739,-0.4251 -0.223066,-1.0761 -0.284976,-1.2437 -0.0135,-0.037 -0.03498,-0.1156 -0.04771,-0.1756 -0.07165,-0.3379 -0.315571,-1.794 -0.74518,-4.4486 -0.134861,-0.8333 -0.247767,-1.527 -0.250907,-1.5415 -0.0049,-0.023 -0.03028,-0.033 -0.184639,-0.072 -0.572457,-0.145 -1.083509,-0.397 -1.375131,-0.6781 -0.240055,-0.2314 -0.42401,-0.5102 -0.854552,-1.295 -0.52091,-0.9495 -0.83878,-1.4099 -1.342032,-1.9436 -0.315741,-0.3349 -0.517746,-0.5 -1.005305,-0.8217 -0.723875,-0.4777 -0.966971,-0.6677 -1.274592,-0.9959 -0.343438,-0.3664 -0.580115,-0.7348 -1.251609,-1.948 -0.635145,-1.1476 -0.781341,-1.3708 -1.28,-1.9542 -1.155185,-1.3516 -2.479531,-2.757 -3.730085,-3.9584 -0.235496,-0.2263 -0.701464,-0.6614 -0.856361,-0.7999 l -0.0694,-0.062 h -0.431569 c -0.570974,0 -0.970692,-0.028 -1.505069,-0.098 -1.310882,-0.1714 -2.404308,-0.5428 -3.226488,-1.0959 -0.401394,-0.2701 -0.921264,-0.7279 -1.295784,-1.1413 -0.698858,-0.7714 -1.181672,-1.4511 -2.097799,-2.9532 -0.355181,-0.5824 -0.491583,-0.7976 -0.664398,-1.048 -0.212938,-0.3085 -0.514365,-0.7004 -0.733672,-0.9538 -0.05432,-0.063 -0.09877,-0.1215 -0.09878,-0.1304 -3e-6,-0.01 -0.01548,-0.05 -0.03438,-0.091 -0.177811,-0.3855 -0.692265,-0.7855 -1.436268,-1.1167 -1.037643,-0.4619 -2.452929,-0.7917 -4.403329,-1.026 l -0.118788,-0.014 -0.119767,-0.085 c -0.333413,-0.2365 -0.567246,-0.5591 -0.683883,-0.9434 -0.03608,-0.119 -0.07402,-0.3193 -0.07402,-0.3908 v -0.039 l -0.110334,0.01 c -0.260859,0.023 -0.619657,0.1047 -0.83793,0.1899 -0.248719,0.097 -0.382705,0.1874 -0.552145,0.3724 -0.26551,0.2897 -0.466509,0.6604 -0.622984,1.1489 -0.09982,0.3116 -0.105024,0.3446 -0.07363,0.4664 0.22909,0.8896 -0.106432,2.3652 -0.93446,4.1099 -0.785389,1.6549 -1.862503,3.1923 -2.766901,3.9494 -0.120536,0.1009 -0.351637,0.2602 -0.459351,0.3166 -0.100265,0.053 -0.135626,0.09 -0.230353,0.2432 -0.331712,0.5369 -0.568607,1.3824 -0.568607,2.0293 0,0.3836 0.06612,0.7088 0.203244,0.9997 0.09031,0.1917 0.193746,0.3333 0.359961,0.493 0.07328,0.07 0.23551,0.229 0.360522,0.3524 0.87334,0.8624 1.564258,1.4696 2.952806,2.5947 1.16601,0.9448 1.574933,1.3008 2.18562,1.9029 0.455742,0.4494 0.932143,0.9821 1.374461,1.5371 0.07077,0.089 0.188378,0.2194 0.261343,0.2903 0.225733,0.2194 0.796355,0.8141 1.05003,1.0944 4.109437,4.5407 7.380287,11.2456 7.909106,16.2127 0.101809,0.9563 0.09955,1.8507 -0.0066,2.6204 -0.149076,1.0808 -0.506806,1.9776 -1.050209,2.6328 -0.338931,0.4086 -0.749072,0.7352 -1.212951,0.966 l -0.125492,0.062 -0.263452,-0.01 c -1.140819,-0.035 -2.57753,-0.214 -3.708317,-0.4619 -1.192826,-0.2614 -2.206239,-0.6079 -3.067172,-1.0488 -1.691907,-0.8665 -3.82585,-2.2519 -5.994328,-3.8917 -1.584716,-1.1983 -3.383401,-2.6843 -4.729393,-3.9074 -1.437303,-1.306 -3.335416,-2.6705 -5.46296,-3.9273 -1.60271,-0.9467 -2.960812,-1.6654 -6.810804,-3.6041 -0.380597,-0.1917 -0.982593,-0.5232 -1.371705,-0.7555 -2.4088321,-1.4377 -4.3510327,-3.1735 -5.5476886,-4.9583 -0.2315799,-0.3454 -0.5606281,-0.9164 -0.7268337,-1.2613 -0.3077151,-0.6386 -0.4869166,-1.2959 -0.5623933,-2.0629 -0.029351,-0.2983 -0.029232,-1.0172 2.977e-4,-1.3261 0.1915153,-2.0095 1.0192401,-4.1543 2.6120568,-6.7683 0.3793431,-0.6226 1.0754916,-1.6967 1.1589726,-1.7883 0.1395325,-0.1531 0.3795662,-0.5622 0.5889532,-1.0037 0.1362943,-0.2874 0.2314401,-0.5233 0.3114503,-0.7722 0.031841,-0.099 0.1018794,-0.2807 0.155642,-0.4036 0.177704,-0.4064 0.602196,-1.4079 0.810669,-1.9125 1.174507,-2.8433 1.913962,-4.8943 1.974476,-5.4767 0.02854,-0.2747 0.131793,-1.1093 0.162086,-1.3102 0.170438,-1.1302 0.444048,-1.9436 0.866902,-2.5769 0.285489,-0.4276 0.734594,-0.882 1.19535,-1.2095 0.784933,-0.5578 1.783209,-0.9562 2.76913,-1.1052 0.168808,-0.026 0.164396,-0.024 0.380861,-0.1831 0.270705,-0.1998 0.443661,-0.3566 0.515525,-0.4672 0.06429,-0.099 0.177397,-0.479 0.81961,-2.7538 1.08601,-3.8468 1.758609,-6.1462 2.292293,-7.8363 0.323188,-1.0236 0.65257,-1.7752 1.521402,-3.4719 0.63501,-1.2401 0.880919,-1.7601 1.11834,-2.365 0.405317,-1.0326 0.68999,-2.2768 0.852449,-3.7256 0.02031,-0.181 0.05019,-0.4113 0.06644,-0.5117 0.196032,-1.2121 0.806743,-2.8179 1.375009,-3.6155 0.09789,-0.1374 0.288541,-0.3709 0.605829,-0.7421 1.483969,-1.736 3.02404,-3.0932 4.81151,-4.2401 0.382362,-0.2454 0.737689,-0.4266 1.186822,-0.6054 0.42619,-0.1697 0.859385,-0.3051 1.830927,-0.5725 0.602411,-0.1659 0.762203,-0.2165 1.431343,-0.4533 0.583595,-0.2066 0.863066,-0.278 1.157313,-0.2957 0.114181,-0.01 0.135782,0 0.238557,0.027 0.504684,0.1532 1.089061,0.4654 1.693451,0.9046 0.516328,0.3752 0.910664,0.7038 2.051589,1.7097 1.336861,1.1786 2.076225,1.7934 3.465045,2.8811 1.297288,1.0161 2.860913,2.1841 4.150891,3.1007 l 0.298198,0.2119 0.12524,0.01 c 0.600519,0.038 1.231263,0.3438 1.908458,0.9245 0.165787,0.1421 0.647107,0.6428 0.786339,0.818 l 0.100492,0.1265 0.08439,0.022 c 0.134014,0.036 0.298364,0.029 0.50187,-0.021 0.485725,-0.1194 0.692497,-0.014 1.490983,0.7594 0.609381,0.5903 0.714346,0.6761 0.984048,0.805 0.239435,0.1145 0.441284,0.1732 0.878857,0.256 0.445057,0.084 0.593232,0.1294 0.812216,0.2478 0.158483,0.086 0.274964,0.1679 0.509177,0.3596 0.410243,0.3359 0.819044,0.7192 1.363008,1.2781 l 0.349214,0.3589 0.169906,-0.02 c 0.777154,-0.092 1.655586,-0.083 2.430233,0.024 0.633013,0.088 1.19454,0.229 1.723574,0.4341 0.729974,0.2829 1.384874,0.6884 1.748349,1.0827 0.209789,0.2276 0.341673,0.4087 0.667044,0.9164 0.411743,0.6423 0.584466,0.8769 0.846241,1.1492 0.359192,0.3737 0.713884,0.6292 1.782748,1.2844 0.694892,0.4259 0.960715,0.6054 1.231025,0.8312 0.246491,0.2059 0.396952,0.3776 0.635347,0.7253 0.116222,0.1694 0.217269,0.33 0.230536,0.3663 0.013,0.036 0.04484,0.1736 0.07077,0.3068 0.06921,0.3555 0.119321,0.5812 0.226103,1.0184 l 0.09555,0.3912 -0.0034,0.1739 -0.0034,0.174 0.07719,0.1173 c 0.224692,0.3417 0.539351,0.7349 0.840574,1.0505 0.426792,0.4471 0.817417,0.7525 1.240495,0.9698 0.221804,0.1139 0.389971,0.1718 0.571893,0.1966 0.249293,0.034 0.415277,0.024 0.9668,-0.056 0.458253,-0.067 0.537746,-0.074 0.75244,-0.074 0.31687,0 0.536953,0.047 0.774327,0.1665 0.229427,0.1152 0.467743,0.3155 0.887086,0.7458 0.311495,0.3196 0.520505,0.553 1.051097,1.1741 0.563664,0.6598 0.745544,0.8641 1.079056,1.212 0.331175,0.3454 0.52685,0.5326 0.628485,0.6012 0.07974,0.054 0.2163,0.103 0.370119,0.1333 0.154142,0.03 0.773544,0.03 1.220489,0 0.376051,-0.026 0.808542,-0.03 0.978081,-0.01 0.158217,0.02 0.32298,0.065 0.41655,0.1125 0.213435,0.1094 0.419543,0.367 0.762546,0.953 0.316119,0.54 0.456473,0.7143 0.657795,0.8168 0.126278,0.064 0.205587,0.082 0.405548,0.089 0.144771,0.01 0.240378,0 0.500969,-0.029 0.398449,-0.043 0.771,-0.049 0.938515,-0.014 0.327167,0.068 0.551961,0.1981 0.808916,0.4673 0.171535,0.1796 0.267167,0.3048 0.536885,0.7025 0.364553,0.5376 0.543103,0.7706 0.780947,1.0191 0.187023,0.1954 0.37898,0.3606 0.787434,0.6776 0.690088,0.5354 0.760188,0.5983 0.928659,0.8332 0.297018,0.4141 0.486511,0.8237 0.584888,1.2641 0.05801,0.2597 0.08156,0.4792 0.102588,0.9562 0.02398,0.5444 0.0493,0.7645 0.119389,1.0387 0.113878,0.4454 0.34748,0.9814 0.64713,1.4849 0.0662,0.1113 0.08204,0.1287 0.204693,0.2256 0.787284,0.6218 1.566483,1.6199 2.095441,2.6841 0.566998,1.1406 0.880678,2.3355 0.994393,3.7877 0.03781,0.4829 0.04416,0.6495 0.05061,1.3295 0.0084,0.8802 -0.01255,1.5097 -0.08043,2.421 -0.160272,2.1521 -0.564062,4.8003 -1.103665,7.2383 -0.04211,0.1903 -0.08703,0.411 -0.09983,0.4906 -0.08286,0.515 -0.154435,1.2284 -0.197015,1.964 -0.03806,0.6574 -0.04391,0.8627 -0.05047,1.7696 -0.0063,0.865 -2.96e-4,1.4808 0.0332,3.3842 0.0069,0.3927 0.01327,1.2003 0.01419,1.7945 0.0014,1.0386 -0.0034,1.3065 -0.129054,6.9168 -0.07188,3.2101 -0.134503,5.8115 -0.139164,5.781 -0.02847,-0.1865 -0.137558,-3.4913 -0.176437,-5.3458 -0.033,-1.5741 -0.03861,-2.1847 -0.04787,-5.2098 -0.0059,-1.9044 -0.0151,-3.3656 -0.02249,-3.5331 -0.01953,-0.445 -0.03501,-0.6965 -0.07302,-1.186 -0.08188,-1.0545 -0.103949,-1.5641 -0.131493,-3.0364 -0.0166,-0.8881 -0.02443,-0.9558 -0.114763,-0.9952 -0.0404,-0.018 -0.05173,-0.018 -0.122689,0 -0.111579,0.028 -0.336812,0.149 -0.734206,0.3935 -0.190249,0.1171 -0.552557,0.3387 -0.805131,0.4925 -0.519243,0.3162 -0.665976,0.4159 -0.792101,0.5386 -0.106425,0.1034 -0.158214,0.1841 -0.176468,0.2747 -0.01963,0.097 0.01487,0.2018 0.120063,0.3635 0.04443,0.068 0.126574,0.1947 0.182544,0.281 0.195375,0.301 0.291806,0.558 0.339479,0.905 0.025,0.1818 0.03598,0.8991 0.01735,1.1327 -0.03058,0.3833 -0.09869,0.7405 -0.181292,0.9506 -0.03949,0.1004 -0.08621,0.1769 -0.108017,0.1769 -0.007,0 -0.17605,0.067 -0.37564,0.1496 -0.790962,0.3262 -1.27584,0.4918 -1.564074,0.5343 -0.12271,0.018 -0.173101,0.01 -0.27608,-0.044 -0.08531,-0.045 -0.310461,-0.1256 -0.901299,-0.3236 -0.429109,-0.1438 -0.698225,-0.2442 -1.050698,-0.392 -0.297957,-0.1249 -0.415125,-0.1598 -0.536566,-0.1602 -0.115137,0 -0.183309,0.026 -0.243993,0.095 -0.06724,0.076 -0.09746,0.1529 -0.174523,0.4444 -0.108149,0.4091 -0.155533,0.5188 -0.333896,0.7729 -0.05674,0.081 -0.181061,0.2587 -0.276253,0.3954 -0.485065,0.696 -0.768527,1.0519 -1.261991,1.5842 -0.292466,0.3155 -0.375385,0.4443 -0.43528,0.676 -0.02082,0.081 -0.02562,0.1336 -0.02545,0.2794 2.96e-4,0.2723 0.04446,0.4975 0.229822,1.1736 0.391346,1.4273 0.546767,2.263 0.684809,3.6821 0.190119,1.9547 0.417628,5.3492 0.885399,13.2106 0.0077,0.1289 0.0014,0.1657 -0.01357,0.081 z m -45.552858,-6.6038 c 0.64164,-0.1683 1.274561,-0.4552 1.757691,-0.7971 0.668497,-0.473 1.097409,-1.0673 1.265845,-1.7542 0.0578,-0.2357 0.07593,-0.4031 0.07607,-0.7024 2.96e-4,-0.6182 -0.100289,-1.0349 -0.478218,-1.9808 -0.279502,-0.6995 -0.640983,-1.4568 -1.007765,-2.1112 -0.841349,-1.501 -1.908842,-2.8235 -3.091027,-3.8294 -1.712751,-1.4573 -3.625462,-2.272 -5.64873,-2.4059 -0.283492,-0.019 -1.045076,-0.01 -1.306871,0.019 -0.8677,0.088 -1.614513,0.2679 -2.434784,0.5853 -0.448398,0.1736 -0.587477,0.249 -0.881161,0.4783 -0.804936,0.6284 -1.322941,1.5632 -1.514156,2.7324 -0.04972,0.304 -0.06786,0.5222 -0.07472,0.899 -0.0065,0.3553 0.0038,0.6012 0.03525,0.8445 l 0.01442,0.1117 0.0089,-0.1925 c 0.05991,-1.2999 0.524441,-2.4298 1.335153,-3.2475 0.337516,-0.3404 0.735325,-0.6282 1.157502,-0.8374 0.629216,-0.3119 1.313535,-0.491 2.144862,-0.5613 0.233656,-0.02 0.960678,-0.02 1.204709,0 0.6327,0.051 1.230722,0.143 1.836139,0.2832 0.29218,0.068 0.437161,0.11 0.633312,0.1852 0.705203,0.27 1.534326,0.762 2.361333,1.4013 1.229658,0.9505 2.380138,2.1391 3.252845,3.3607 0.803776,1.125 1.325843,2.2106 1.543235,3.2092 0.01942,0.089 0.05598,0.2183 0.08117,0.2866 0.08532,0.2313 0.142628,0.4706 0.169386,0.7072 0.02221,0.1963 0.0076,0.5628 -0.0297,0.7435 -0.07687,0.3726 -0.226233,0.7029 -0.474006,1.0481 -0.110521,0.154 -0.464865,0.5249 -0.636544,0.6663 -0.391431,0.3223 -0.929465,0.6454 -1.419957,0.8525 -0.198855,0.084 -0.181172,0.085 0.119818,0.01 z m 38.899338,-12.608 c -0.0027,-0.019 -0.0051,-0.01 -0.0051,0.028 0,0.034 0.002,0.05 0.005,0.034 0.0031,-0.015 0.0031,-0.043 0,-0.062 z m 0.0083,-0.6863 c 0.02129,-0.633 0.171372,-3.3165 0.316999,-5.6692 0.05224,-0.844 0.0643,-0.937 0.161307,-1.2443 0.191647,-0.6072 0.553679,-1.0744 1.485713,-1.9173 0.261622,-0.2367 0.269671,-0.2427 0.295314,-0.2236 0.01449,0.011 0.201491,0.2126 0.415549,0.4482 0.486426,0.5355 0.713051,0.77 0.74418,0.77 0.03552,0 0.08467,-0.091 0.168018,-0.3097 0.136613,-0.359 0.427871,-1.316 0.655598,-2.1541 0.05514,-0.2029 0.06481,-0.229 0.07163,-0.1925 0.0044,0.023 0.130595,1.081 0.280567,2.3509 0.149971,1.2698 0.274423,2.2994 0.276559,2.288 0.002,-0.011 -0.0046,-0.1171 -0.015,-0.2349 -0.04201,-0.4765 -0.0761,-1.0017 -0.10418,-1.6049 -0.01919,-0.4117 -0.01932,-1.6884 -2.96e-4,-2.0243 0.05678,-1.0005 0.157394,-1.6773 0.335264,-2.2552 0.03572,-0.1161 0.04134,-0.1253 0.212643,-0.3479 1.202956,-1.5637 2.409842,-3.7124 3.623041,-6.4502 0.742541,-1.6758 1.520759,-3.6802 2.191335,-5.6444 0.174845,-0.5121 0.34372,-1.0221 0.339798,-1.0262 -0.002,0 -0.05136,0.1286 -0.109395,0.2907 -1.036537,2.8949 -2.476728,5.7679 -4.060325,8.0999 -0.710424,1.0461 -1.278429,1.7777 -2.213306,2.8505 -0.190657,0.2188 -0.650427,0.7497 -1.021716,1.1798 -1.238434,1.4346 -1.732708,1.9861 -2.443421,2.7265 -0.631244,0.6576 -0.841812,0.8572 -1.264999,1.1995 -1.722403,1.3928 -3.506886,2.4595 -5.248259,3.1371 -0.283121,0.1102 -0.794247,0.2898 -0.914552,0.3213 -0.02888,0.01 -0.05026,0.016 -0.04751,0.019 0.0027,0 0.143852,-0.023 0.313564,-0.057 1.023002,-0.2066 1.82061,-0.3274 2.64642,-0.4006 0.106384,-0.01 0.369911,-0.016 0.650066,-0.016 0.391519,0 0.495346,0 0.614286,0.022 0.377021,0.058 0.60323,0.16 0.721429,0.3239 0.283975,0.3936 0.531867,1.604 0.721361,3.5221 0.06837,0.692 0.147345,1.7764 0.16914,2.3223 0.01044,0.2617 0.02215,0.2267 0.03313,-0.099 z m -6.717981,-5.4023 c 0.209819,-0.043 0.633496,-0.1492 0.626134,-0.1568 -0.0046,0 -0.631455,0.1348 -0.783576,0.1744 -0.117379,0.031 -0.02946,0.021 0.157442,-0.018 z m 11.611694,-0.2822 c -0.0031,-0.012 -0.0057,-0.01 -0.006,0.015 -2.99e-4,0.02 0.0024,0.03 0.0055,0.022 0.0034,-0.01 0.0035,-0.025 2.96e-4,-0.037 z m -0.01177,-0.118 c -0.0031,-0.016 -0.0053,-0.01 -0.0054,0.021 0,0.028 0.002,0.04 0.0052,0.028 0.0031,-0.012 0.0031,-0.034 2.96e-4,-0.05 z m -24.258236,-9.1839 c 0.06065,-0.5098 0.262037,-1.1315 0.518451,-1.6004 0.345636,-0.6321 0.712295,-1.0386 1.620598,-1.7966 1.142578,-0.9537 2.925779,-2.1619 4.686783,-3.1756 0.148315,-0.085 0.268344,-0.1566 0.266734,-0.1583 -0.0014,0 -0.06958,0.022 -0.151053,0.054 -1.272741,0.4878 -2.874279,1.0292 -3.947147,1.3344 -1.175616,0.3345 -2.028167,0.4734 -2.886546,0.4703 -0.319622,0 -0.435603,-0.01 -0.435004,-0.03 2.99e-4,-0.014 0.185255,-0.1439 0.729015,-0.5124 1.44647,-0.9802 2.793258,-2.0378 3.868814,-3.038 1.568482,-1.4585 3.304888,-3.4929 5.13686,-6.0183 0.458868,-0.6326 1.025352,-1.445 1.286008,-1.8442 0.117641,-0.1802 0.114858,-0.1798 -0.03624,0.01 -1.047219,1.2886 -2.638871,3.003 -3.991068,4.299 -2.934912,2.8128 -5.7265,4.7378 -8.073364,5.5673 -0.808355,0.2857 -1.591418,0.4706 -2.445061,0.5774 -1.434942,0.1794 -2.93296,0.1086 -4.478913,-0.2118 -1.070834,-0.2219 -2.21662,-0.5872 -3.083353,-0.9832 -0.082,-0.037 -0.181302,-0.083 -0.220664,-0.1009 l -0.07157,-0.033 0.04175,0.039 c 0.08195,0.076 0.450721,0.3586 0.650069,0.4986 0.41505,0.2917 0.837924,0.5475 1.288206,0.7794 1.118044,0.5756 2.07269,0.8693 3.451723,1.0616 0.634646,0.088 1.435268,0.1554 1.862905,0.1556 h 0.161796 l 0.160259,0.084 c 0.417777,0.2202 0.872424,0.5784 1.311446,1.0333 0.633122,0.6559 1.647421,1.9934 2.611079,3.4431 0.08059,0.1212 0.148005,0.2204 0.149811,0.2204 0.0017,0 0.0098,-0.054 0.01769,-0.1211 z m -31.025551,-2.6887 c 0.05032,-0.2072 0.180132,-0.6186 0.269382,-0.8538 0.213224,-0.5617 0.619759,-1.2752 1.128562,-1.9807 0.06403,-0.089 0.115515,-0.1624 0.114406,-0.1637 -0.0014,0 -0.07443,0.017 -0.162939,0.04 -0.711016,0.1882 -1.616819,0.3026 -2.399732,0.3031 -0.630271,0 -0.901237,-0.048 -2.169951,-0.3835 -0.525975,-0.1393 -0.849839,-0.2107 -1.143656,-0.252 -0.301936,-0.042 -0.779858,-0.04 -1.192788,0.01 -1.275405,0.143 -2.357492,0.3542 -3.375583,0.6588 -0.411633,0.1231 -1.013359,0.3354 -0.997529,0.3519 0.0027,0 0.07938,0 0.170268,-0.01 0.765723,-0.06 1.888106,-0.075 2.765534,-0.038 1.834925,0.079 3.297173,0.3491 4.4571,0.8233 0.949639,0.3883 1.811722,0.9511 2.389214,1.5597 0.05233,0.055 0.09798,0.1003 0.101448,0.1003 0.0034,0 0.02429,-0.074 0.04626,-0.1646 z m 3.18982,-3.8995 c 0.126965,-0.4055 0.208965,-0.8295 0.261254,-1.3505 0.0234,-0.2333 0.01973,-0.9241 -0.0062,-1.1674 -0.0643,-0.6028 -0.2019,-1.1628 -0.408304,-1.6614 -0.531701,-1.2847 -2.105449,-2.8525 -3.661121,-3.6474 -1.038435,-0.5306 -2.627513,-1.1693 -3.691669,-1.4839 -0.528755,-0.1563 -0.863311,-0.2223 -1.413453,-0.279 -0.843101,-0.087 -1.819202,-0.096 -2.737442,-0.025 -1.397648,0.1076 -2.924361,0.4088 -4.285166,0.8452 -0.41939,0.1345 -1.028069,0.3548 -1.052551,0.3809 -0.0079,0.01 -0.0079,0.01 0,0.01 0.0065,0 0.143432,-0.03 0.304161,-0.057 0.795544,-0.1367 1.595528,-0.2232 2.564488,-0.2774 0.377908,-0.021 1.735001,-0.021 2.081412,0 0.957117,0.058 1.667483,0.1447 2.422475,0.2949 1.051134,0.2091 1.975017,0.5084 2.843672,0.9211 0.300607,0.1428 1.540738,0.7872 1.896528,0.9854 1.37968,0.7687 2.262439,1.4125 2.964077,2.1618 0.710386,0.7586 1.126143,1.5157 1.472803,2.6819 0.148332,0.499 0.327603,1.3638 0.364686,1.7592 0.0046,0.05 0.01214,0.09 0.0167,0.09 0.0046,0 0.03317,-0.08 0.06365,-0.177 z m 59.085514,-5.1631 c 0,-0.012 -0.0038,-0.01 -0.01024,0.01 -0.0056,0.014 -0.01024,0.033 -0.01024,0.044 0,0.012 0.0038,0.01 0.01024,-0.01 0.0056,-0.014 0.01024,-0.033 0.01024,-0.044 z M 57.5743,3146.274 c 0.211717,-0.042 0.462875,-0.1413 0.802078,-0.3181 0.22706,-0.1183 0.380052,-0.2065 0.907905,-0.5234 0.216494,-0.13 0.511318,-0.3026 0.655173,-0.3836 0.356317,-0.2007 0.445329,-0.2704 0.736505,-0.5768 0.310628,-0.3269 0.541981,-0.6238 1.217676,-1.5621 0.490151,-0.6807 0.758665,-1.0374 0.934429,-1.2414 0.232595,-0.2699 0.286806,-0.347 0.380205,-0.5406 0.193699,-0.4016 0.297304,-0.9037 0.330423,-1.6016 0.01562,-0.3285 0.0017,-0.8138 -0.03211,-1.1373 -0.0093,-0.089 -0.01715,-0.1665 -0.01735,-0.1727 -0.0014,-0.038 -0.209547,0.2308 -0.345534,0.4464 -0.303933,0.4819 -0.475033,0.9379 -0.572433,1.5258 -0.05908,0.3567 -0.140593,0.5706 -0.331652,0.8705 -0.232512,0.365 -0.440035,0.5971 -1.237719,1.3845 -0.807453,0.7971 -1.078182,1.0846 -1.490864,1.5833 -0.478731,0.5785 -0.803174,0.8428 -1.175011,0.9573 -0.06072,0.019 -0.115031,0.024 -0.250484,0.024 -0.205472,0 -0.266418,-0.016 -0.502602,-0.1318 -0.185731,-0.091 -0.216667,-0.097 -0.299242,-0.061 -0.05344,0.024 -0.07578,0.027 -0.152237,0.021 -0.377307,-0.031 -1.223626,-0.4463 -1.550817,-0.7617 -0.181217,-0.1747 -0.365493,-0.5718 -0.483123,-1.0411 -0.109228,-0.4358 -0.103561,-0.6028 0.0299,-0.8818 0.06065,-0.1267 0.123202,-0.2255 0.347925,-0.5493 0.139933,-0.2017 0.20456,-0.3184 0.264813,-0.4781 0.108361,-0.2874 0.435161,-0.7231 0.955799,-1.2744 0.297936,-0.3154 0.493019,-0.5029 0.715669,-0.6876 0.208313,-0.1729 0.339741,-0.317 0.847092,-0.9287 0.568855,-0.6859 1.042925,-1.2212 1.277588,-1.4426 0.476449,-0.4495 1.053267,-0.7194 1.569463,-0.7342 h 0.103853 l 0.09188,-0.1489 c 0.449313,-0.7281 0.92286,-1.6649 1.27749,-2.5271 0.610942,-1.4854 1.019345,-3.0524 1.17167,-4.4956 0.100768,-0.9548 0.107177,-1.6521 0.02507,-2.726 -0.01306,-0.1707 -0.02939,-0.4019 -0.03633,-0.5139 -0.09644,-1.5589 -0.854384,-3.0024 -2.129153,-4.055 -0.12755,-0.1053 -0.441349,-0.3294 -0.559428,-0.3994 l -0.05846,-0.035 0.113269,0.1544 c 0.626023,0.8534 1.223204,1.9721 1.583941,2.9672 0.170508,0.4704 0.300841,0.9356 0.387917,1.3847 0.14842,0.7655 0.173209,1.3668 0.08499,2.0615 -0.331451,2.6104 -1.037286,4.7836 -2.133453,6.5685 -0.210115,0.3421 -0.623831,0.9243 -0.715636,1.007 -0.06852,0.062 -0.388699,0.2232 -0.623525,0.3144 -0.475612,0.1846 -1.178569,0.4063 -1.912874,0.6034 -0.140198,0.038 -0.256111,0.07 -0.257587,0.072 -0.0014,0 -0.101094,0.1546 -0.221379,0.339 -1.61194,2.4715 -2.796585,4.2568 -2.904609,4.3777 -0.02136,0.024 -0.05988,0.08 -0.08556,0.1242 -0.313415,0.5419 -1.306382,2.6626 -1.442382,3.0805 -0.02973,0.091 -0.03413,0.1233 -0.03413,0.2477 0,0.1307 0.0027,0.1481 0.03174,0.2054 0.01745,0.034 0.05588,0.086 0.08539,0.1141 0.135296,0.1298 0.324725,0.183 0.852156,0.2391 0.376916,0.04 0.471537,0.063 0.596349,0.1451 0.211217,0.1389 0.376313,0.2051 1.529641,0.6138 0.489613,0.1735 0.818846,0.2966 1.127185,0.4218 0.104965,0.043 0.206948,0.082 0.226627,0.087 0.06156,0.016 0.190123,0.013 0.293895,-0.01 z m -24.203975,-2.0563 c -0.309509,-0.8378 -0.771371,-1.8297 -1.225052,-2.6308 -0.962116,-1.6989 -2.073258,-2.9897 -3.230878,-3.7533 -1.180093,-0.7783 -2.748909,-1.2681 -4.584695,-1.4312 -1.219357,-0.1083 -2.563525,-0.075 -3.800377,0.094 -0.310036,0.042 -0.384757,0.059 -0.278954,0.06 0.214276,0 0.939236,0.077 1.42538,0.1453 2.132731,0.2978 4.121696,0.9203 5.606093,1.7546 1.841916,1.0352 3.758613,2.8047 5.483034,5.0619 0.183558,0.2403 0.488349,0.662 0.612099,0.847 0.04592,0.069 0.08524,0.1232 0.08738,0.1212 0.002,0 -0.04018,-0.1227 -0.09403,-0.2685 z m 6.459626,-1.0715 c 0.471281,-0.042 0.927217,-0.1014 1.378873,-0.1801 l 0.279097,-0.049 0.661996,-0.2685 c 0.364101,-0.1477 0.675416,-0.2775 0.691816,-0.2884 0.103112,-0.069 0.951666,-0.7488 1.3896,-1.1139 1.452828,-1.2111 2.666147,-2.3281 3.703616,-3.4098 0.391203,-0.4078 0.550108,-0.5876 0.741309,-0.8388 0.632462,-0.8307 1.181222,-1.929 1.573082,-3.1481 0.08169,-0.2542 0.178512,-0.5882 0.178512,-0.6159 0,-0.01 -0.04361,0.057 -0.09693,0.1388 -0.28088,0.4289 -0.630326,0.905 -0.951778,1.2967 -0.537658,0.6552 -1.12579,1.2364 -1.605239,1.5862 -0.528432,0.3857 -1.234529,0.7023 -1.985992,0.8904 -0.168658,0.042 -0.491413,0.1082 -0.497659,0.1017 -0.01402,-0.015 -0.298419,-0.5987 -0.414897,-0.8521 -0.641374,-1.3953 -0.967947,-2.3998 -1.003458,-3.0865 l -0.0077,-0.1494 0.0903,-0.2114 c 0.932987,-2.1843 1.675741,-5.2539 2.166273,-8.9529 0.139042,-1.0484 0.261068,-2.2131 0.335499,-3.2021 0.01381,-0.1834 0.02323,-0.3354 0.02089,-0.3378 -0.0024,0 -0.02755,0.1029 -0.05615,0.2341 -0.393897,1.8075 -1.063564,4.1874 -1.714743,6.0939 -0.994147,2.9106 -2.042968,5.2119 -3.752466,8.2337 -1.21061,2.1399 -2.879164,4.74 -4.25894,6.6369 -0.144467,0.1986 -0.14244,0.1644 -0.01993,0.3362 0.41013,0.5752 1.014039,0.9927 1.616095,1.1174 0.124792,0.026 0.258663,0.044 0.459477,0.061 0.123115,0.011 0.880657,-0.01 1.079475,-0.023 z"
       id="path817"
       inkscape:connector-curvature="0" />
  </g>
</svg>
