<?xml version="1.0" encoding="UTF-8" standalone="no"?>
<!-- Created with Inkscape (http://www.inkscape.org/) -->

<svg
   xmlns:dc="http://purl.org/dc/elements/1.1/"
   xmlns:cc="http://creativecommons.org/ns#"
   xmlns:rdf="http://www.w3.org/1999/02/22-rdf-syntax-ns#"
   xmlns:svg="http://www.w3.org/2000/svg"
   xmlns="http://www.w3.org/2000/svg"
   xmlns:xlink="http://www.w3.org/1999/xlink"
   xmlns:sodipodi="http://sodipodi.sourceforge.net/DTD/sodipodi-0.dtd"
   xmlns:inkscape="http://www.inkscape.org/namespaces/inkscape"
   version="1.1"
   id="svg2"
   width="100mm"
   height="100mm"
   viewBox="0 0 377.95275 377.95275"
   sodipodi:docname="favicon_backup.svg"
   inkscape:version="0.92.4 (5da689c313, 2019-01-14)">
  <metadata
     id="metadata8">
    <rdf:RDF>
      <cc:Work
         rdf:about="">
        <dc:format>image/svg+xml</dc:format>
        <dc:type
           rdf:resource="http://purl.org/dc/dcmitype/StillImage" />
        <dc:title></dc:title>
      </cc:Work>
    </rdf:RDF>
  </metadata>
  <defs
     id="defs6">
    <linearGradient
       inkscape:collect="always"
       id="linearGradient852">
      <stop
         offset="0.00"
         style="stop-color:#011515"
         id="stop875" />
      <stop
         offset="0.36"
         style="stop-color:#0a413f"
         id="stop877" />
      <stop
         offset="0.60"
         style="stop-color:#799679"
         id="stop879" />
      <stop
         offset="1.00"
         style="stop-color:#011515"
         id="stop881" />
    </linearGradient>
    <linearGradient
       inkscape:collect="always"
       xlink:href="#linearGradient852"
       id="linearGradient858"
       gradientUnits="userSpaceOnUse"
       x1="9.4488192"
       y1="3190.5513"
       x2="368.50394"
       y2="2831.4961" />
  </defs>
  <sodipodi:namedview
     pagecolor="#ffffff"
     bordercolor="#666666"
     borderopacity="1"
     objecttolerance="10"
     gridtolerance="10"
     guidetolerance="10"
     inkscape:pageopacity="0"
     inkscape:pageshadow="2"
     inkscape:window-width="1920"
     inkscape:window-height="1016"
     id="namedview4"
     showgrid="false"
     inkscape:zoom="0.7071068"
     inkscape:cx="149.34257"
     inkscape:cy="359.60909"
     inkscape:window-x="0"
     inkscape:window-y="27"
     inkscape:window-maximized="1"
     inkscape:current-layer="layer1"
     units="mm" />
  <g
     inkscape:groupmode="layer"
     id="layer2"
     inkscape:label="background"
     style="display:inline"
     transform="translate(0,-2822.0474)"
     sodipodi:insensitive="true">
    <rect
       style="opacity:1;fill:url(#linearGradient858);fill-opacity:1;stroke:none;stroke-width:10.66202927;stroke-miterlimit:4;stroke-dasharray:none;stroke-opacity:1"
       id="rect850"
       width="359.05511"
       height="359.05511"
       x="9.4488192"
       y="2831.4961"
       ry="31.112698" />
  </g>
  <g
     inkscape:groupmode="layer"
     id="layer1"
     inkscape:label="finger"
     style="display:inline"
     transform="translate(0,-2822.0474)">
    <path
       style="fill:#ffffff;stroke-width:0.03577788"
       d="m 291.51969,3143.1338 c -0.0403,-0.328 -0.0911,-0.9793 -0.17851,-2.2908 -0.0482,-0.7229 -0.0973,-1.4292 -0.10915,-1.5698 -0.0119,-0.1406 -0.0128,-0.2464 -0.002,-0.2352 0.034,0.035 0.19273,1.0523 0.25048,1.6042 0.0528,0.5047 0.11651,2.665 0.0786,2.665 -0.01,0 -0.0277,-0.078 -0.0395,-0.1734 z m -0.38984,-4.5633 c -0.0133,-0.075 -0.0878,-0.3423 -0.16543,-0.5933 -0.34915,-1.1285 -0.68317,-1.8326 -1.957,-4.1253 -0.88729,-1.5969 -1.37085,-2.555 -2.17425,-4.3078 -2.71103,-5.9146 -4.262,-10.5409 -4.61417,-13.7631 -0.0487,-0.4453 -0.0529,-0.6859 -0.0271,-1.515 0.0169,-0.5422 0.0297,-1.5196 0.0286,-2.1722 -0.003,-1.6334 -0.0871,-2.3275 -0.48468,-3.9975 -0.43578,-1.8303 -0.45764,-2.0237 -0.45389,-4.0158 0.003,-1.5082 0.0228,-2.1005 0.15567,-4.6364 0.04,-0.763 0.0752,-1.6012 0.0782,-1.8626 l 0.005,-0.4755 -0.12946,-0.273 c -0.22654,-0.4776 -0.59144,-0.855 -1.0821,-1.1194 -0.63636,-0.3428 -1.4151,-0.3661 -2.21334,-0.066 -0.75531,0.2837 -1.65172,0.9308 -2.36988,1.711 -0.59536,0.6467 -0.83713,1.2068 -0.74688,1.7306 0.0779,0.4521 0.30207,0.801 1.31184,2.0418 0.72184,0.8871 1.15455,1.6518 1.46002,2.5805 0.0932,0.2835 0.2407,0.6961 0.3277,0.917 0.29016,0.7365 0.51795,1.6322 0.66378,2.6097 0.10043,0.6734 0.10947,2.2146 0.0167,2.8502 -0.13991,0.9585 -0.34246,1.6256 -0.79749,2.6264 -0.73381,1.6138 -1.1573,2.8023 -2.20475,6.1879 -0.17394,0.5621 -0.33951,1.055 -0.36794,1.0952 -0.0503,0.071 -0.0528,0.07 -0.0922,-0.037 -0.16756,-0.4529 -0.86189,-3.7233 -1.2789,-6.0236 -0.35067,-1.9344 -0.53314,-3.1155 -0.75579,-4.892 -0.22296,-1.7788 -0.53278,-3.0209 -0.9714,-3.8943 -0.33423,-0.6655 -0.67961,-0.9258 -0.96688,-0.7286 -0.41929,0.2879 -0.66729,1.3754 -0.79613,3.4912 -0.28566,4.6916 -1.15523,11.2902 -1.64438,12.4784 -0.12664,0.3075 -0.19021,0.2045 -0.24843,-0.4025 -0.0772,-0.8046 -0.28833,-2.1298 -0.68809,-4.3182 -0.14489,-0.7931 -0.30873,-1.6966 -0.3641,-2.0078 -0.0786,-0.4419 -0.15531,-0.722 -0.35006,-1.2778 -0.33364,-0.9522 -0.88317,-2.3868 -1.06984,-2.7927 -0.22193,-0.4827 -0.29674,-0.8529 -1.15454,-5.7134 -0.50117,-2.8396 -0.67676,-3.78 -1.15558,-6.1879 -0.48435,-2.4358 -0.6314,-3.1555 -0.64234,-3.1441 -0.006,0.01 -0.28605,2.5885 -0.623,5.7392 -1.06335,9.9429 -1.24862,11.6047 -1.28682,11.5422 -0.0153,-0.025 -0.0283,-0.1852 -0.0287,-0.356 -8.8e-4,-0.3284 -0.082,-1.8502 -0.1409,-2.6467 -0.0932,-1.2594 -0.17752,-2.0917 -0.30338,-2.9936 -0.0447,-0.3206 -0.0519,-0.5781 -0.0353,-1.2777 0.0228,-0.9621 0.0544,-1.4363 0.28803,-4.3261 0.20602,-2.5484 0.21721,-2.6932 0.27759,-3.5959 0.12092,-1.8074 0.13956,-2.3072 0.14031,-3.7602 8.7e-4,-1.7036 -0.0364,-2.1874 -0.22741,-2.9557 -0.0551,-0.2217 -0.36806,-1.4872 -0.69547,-2.8124 -0.78016,-3.1576 -1.05508,-4.1922 -1.15814,-4.3583 -0.0723,-0.1165 -0.24493,0.097 -1.18263,1.462 -0.76694,1.1165 -0.95791,1.3294 -1.9943,2.2243 -1.16252,1.0037 -1.7102,1.5856 -1.93802,2.0593 -0.40739,0.847 -0.48753,2.1253 -0.26778,4.2713 0.0288,0.281 0.18056,1.431 0.33728,2.5555 l 0.28494,2.0443 8.7e-4,0.8397 c 0.002,1.4298 -0.1965,2.7085 -0.68006,4.3819 -0.2938,1.0166 -0.77048,2.2624 -0.81678,2.1346 -0.0109,-0.03 -0.12483,-0.3505 -0.25314,-0.7119 -0.6486,-1.8269 -1.45167,-3.7076 -1.77369,-4.1538 -0.31756,-0.4401 -0.35982,-0.8487 -0.43447,-4.2017 -0.0524,-2.353 -0.0942,-3.4118 -0.15882,-4.0203 -0.13689,-1.2896 -0.38885,-2.6941 -0.74988,-4.1801 -0.18173,-0.748 -0.57735,-2.1812 -0.71123,-2.5766 -0.051,-0.1505 -0.27002,-0.4326 -1.16727,-1.5032 -0.60747,-0.7249 -1.11359,-1.315 -1.12471,-1.3115 -0.0245,0.01 -1.10992,1.2308 -1.60984,1.8137 -0.65655,0.7655 -0.74966,0.9027 -0.85741,1.2635 -0.15202,0.5093 -0.79314,2.3701 -1.14435,3.3215 -0.96654,2.6184 -1.66377,4.0645 -1.9398,4.0232 -0.12028,-0.017 -0.1592,-0.1736 -0.19551,-0.7822 -0.0351,-0.5872 -0.0826,-0.9707 -0.21453,-1.7294 -0.21725,-1.2496 -0.65573,-3.1632 -0.83772,-3.6559 -0.0397,-0.1076 -0.10284,-0.34 -0.14026,-0.5164 -0.21062,-0.9931 -0.92766,-5.2737 -2.19055,-13.0773 -0.39644,-2.4496 -0.72834,-4.4886 -0.73757,-4.5312 -0.0144,-0.067 -0.089,-0.096 -0.54277,-0.2108 -1.68281,-0.4263 -3.18511,-1.1672 -4.04237,-1.9936 -0.70567,-0.6802 -1.24643,-1.4997 -2.51206,-3.8067 -1.53128,-2.7912 -2.4657,-4.1446 -3.94507,-5.7135 -0.92816,-0.9844 -1.52198,-1.4697 -2.95522,-2.4156 -2.12792,-1.4043 -2.84253,-1.9628 -3.74682,-2.9275 -1.00958,-1.0771 -1.70532,-2.16 -3.67926,-5.7264 -1.86709,-3.3735 -2.29685,-4.0296 -3.76272,-5.7447 -3.39581,-3.9733 -7.28889,-8.1047 -10.96505,-11.6363 -0.69227,-0.6651 -2.06204,-1.9444 -2.51738,-2.3513 l -0.20402,-0.1823 -1.26865,-0.01 c -1.67845,-0.01 -2.85347,-0.083 -4.42434,-0.2888 -3.8535,-0.5039 -7.06776,-1.5957 -9.48466,-3.2216 -1.17995,-0.7938 -2.70817,-2.1398 -3.80912,-3.355 -2.05438,-2.2676 -3.47367,-4.2657 -6.16674,-8.6814 -1.0441,-1.712 -1.44507,-2.3444 -1.95308,-3.0805 -0.62596,-0.907 -1.51204,-2.0591 -2.15672,-2.8041 -0.15969,-0.1845 -0.29036,-0.3571 -0.29038,-0.3833 -1e-5,-0.026 -0.0455,-0.1463 -0.10106,-0.2668 -0.5227,-1.1333 -2.035,-2.3091 -4.22209,-3.2827 -3.05028,-1.3578 -7.21069,-2.3272 -12.94413,-3.0161 l -0.34919,-0.042 -0.35207,-0.2498 c -0.98011,-0.6953 -1.66749,-1.6437 -2.01036,-2.7735 -0.10607,-0.3496 -0.21759,-0.9385 -0.21759,-1.1488 v -0.1137 l -0.32434,0.029 c -0.76683,0.068 -1.82156,0.3076 -2.4632,0.558 -0.73114,0.2854 -1.12501,0.5511 -1.6231,1.0947 -0.7805,0.8517 -1.37136,1.9414 -1.83134,3.3775 -0.29344,0.9161 -0.30873,1.0129 -0.21645,1.3711 0.67344,2.615 -0.31287,6.9529 -2.74696,12.0817 -2.30875,4.8646 -5.47506,9.3842 -8.13365,11.6098 -0.35433,0.2966 -1.03368,0.7649 -1.35032,0.9306 -0.29474,0.1543 -0.39869,0.264 -0.67715,0.7148 -0.97511,1.5784 -1.67149,4.0638 -1.67149,5.9657 0,1.1274 0.19437,2.0835 0.59746,2.9387 0.26548,0.5634 0.56954,0.9798 1.05815,1.4492 0.21541,0.2069 0.69231,0.6731 1.0598,1.036 2.56729,2.5352 4.59833,4.3199 8.68014,7.6273 3.42763,2.7774 4.62971,3.824 6.4249,5.594 1.33971,1.3209 2.74015,2.887 4.0404,4.5184 0.20804,0.261 0.55376,0.6451 0.76825,0.8535 0.66357,0.6448 2.34098,2.393 3.08669,3.217 12.0802,13.3483 21.69527,33.0582 23.2498,47.6597 0.29928,2.8112 0.29263,5.4403 -0.0194,7.703 -0.43823,3.1772 -1.48982,5.8135 -3.08722,7.7395 -0.99633,1.2013 -2.20199,2.1614 -3.56562,2.8396 l -0.3689,0.1835 -0.77445,-0.024 c -3.35358,-0.1033 -7.57697,-0.6292 -10.90106,-1.3578 -3.50646,-0.7684 -6.48551,-1.7871 -9.01633,-3.0832 -4.97357,-2.5473 -11.24656,-6.6198 -17.62107,-11.4401 -4.65847,-3.5226 -9.94593,-7.8911 -13.90264,-11.4863 -4.22513,-3.8392 -9.80487,-7.8505 -16.05905,-11.5449 -4.711366,-2.7832 -8.703676,-4.8959 -20.021206,-10.595 -1.11881,-0.5634 -2.888454,-1.538 -4.032298,-2.2207 -7.08106,-4.2263 -12.7904,-9.3292 -16.308119,-14.5758 -0.680758,-1.0153 -1.648036,-2.6939 -2.136618,-3.7078 -0.904567,-1.8771 -1.431352,-3.8093 -1.653225,-6.0641 -0.08628,-0.8769 -0.08593,-2.9901 8.75e-4,-3.8984 0.562983,-5.9071 2.996183,-12.212 7.678466,-19.8963 1.115126,-1.8301 3.161541,-4.9878 3.406944,-5.257 0.410173,-0.45 1.115782,-1.6525 1.731301,-2.9505 0.400654,-0.8449 0.680347,-1.5383 0.915547,-2.27 0.0936,-0.2911 0.299487,-0.825 0.457529,-1.1865 0.522384,-1.1946 1.77023,-4.1385 2.383063,-5.622 3.45261,-8.3583 5.626329,-14.3876 5.804216,-16.0995 0.08391,-0.8075 0.387424,-3.261 0.476473,-3.8515 0.501025,-3.3225 1.305333,-5.7134 2.548367,-7.5752 0.83923,-1.257 2.15943,-2.5928 3.513878,-3.5554 2.30741,-1.6399 5.241967,-2.8111 8.140204,-3.249 0.49623,-0.075 0.483262,-0.069 1.119588,-0.5383 0.795769,-0.5873 1.304197,-1.0481 1.515448,-1.3734 0.189,-0.291 0.521482,-1.4081 2.409347,-8.0953 3.19246,-11.3082 5.16965,-18.0674 6.73848,-23.0359 0.95005,-3.0089 1.91831,-5.2185 4.47235,-10.2061 1.86669,-3.6453 2.58957,-5.1739 3.2875,-6.9522 1.19148,-3.0356 2.02831,-6.693 2.50588,-10.952 0.0597,-0.5321 0.14755,-1.209 0.1953,-1.5043 0.57626,-3.563 2.37152,-8.2835 4.04201,-10.6281 0.28775,-0.4039 0.8482,-1.0904 1.78091,-2.1815 4.36231,-5.1032 8.88954,-9.0929 14.14403,-12.4645 1.124,-0.7213 2.16853,-1.2541 3.48881,-1.7797 1.25284,-0.4987 2.52627,-0.8969 5.38224,-1.683 1.77086,-0.4875 2.24059,-0.6362 4.20761,-1.3324 1.71555,-0.6073 2.53709,-0.8171 3.40206,-0.8692 0.33565,-0.02 0.39915,-0.013 0.70127,0.079 1.48358,0.4504 3.20143,1.368 4.97811,2.6592 1.51781,1.1029 2.67701,2.0689 6.0309,5.0259 3.92987,3.4647 6.10332,5.2719 10.18593,8.4694 3.81354,2.9869 8.41001,6.4204 12.20206,9.115 l 0.87659,0.6229 0.36816,0.024 c 1.7653,0.1127 3.61945,1.0109 5.61015,2.7177 0.48735,0.4178 1.90225,1.8898 2.31154,2.4048 l 0.29541,0.3717 0.24807,0.066 c 0.39395,0.1052 0.87708,0.085 1.47531,-0.062 1.42785,-0.351 2.03568,-0.041 4.38293,2.2323 1.79135,1.7352 2.09991,1.9876 2.89273,2.3665 0.70385,0.3364 1.29721,0.5092 2.58351,0.7525 1.3083,0.2474 1.74388,0.3803 2.38761,0.7283 0.46588,0.2518 0.80829,0.4938 1.49679,1.0573 1.20596,0.9873 2.40768,2.1142 4.00673,3.7572 l 1.02656,1.0548 0.49946,-0.059 c 2.28454,-0.2706 4.8668,-0.2454 7.14397,0.07 1.86082,0.2576 3.5115,0.6733 5.06666,1.276 2.14585,0.8316 4.07101,2.0238 5.13949,3.1829 0.6167,0.6689 1.00439,1.2015 1.96086,2.6937 1.21037,1.8883 1.71811,2.5779 2.48763,3.3784 1.05589,1.0985 2.09855,1.8496 5.24061,3.7755 2.04272,1.2521 2.82414,1.7797 3.61875,2.4435 0.72459,0.6053 1.16689,1.1102 1.86768,2.1321 0.34165,0.4982 0.63869,0.9702 0.67769,1.077 0.0382,0.1045 0.1318,0.5103 0.20804,0.9018 0.20346,1.0449 0.35076,1.7084 0.66466,2.9936 l 0.28088,1.15 -0.01,0.5114 -0.01,0.5113 0.2269,0.345 c 0.66051,1.0045 1.58549,2.1604 2.47097,3.0881 1.25461,1.3142 2.4029,2.212 3.64659,2.8508 0.65202,0.3349 1.14637,0.5049 1.68115,0.5778 0.73283,0.1 1.22076,0.072 2.84203,-0.1635 1.34709,-0.1956 1.58077,-0.2187 2.21189,-0.2187 0.93148,0 1.57844,0.1391 2.27623,0.4893 0.67443,0.3386 1.37499,0.9275 2.6077,2.1923 0.91568,0.9395 1.53009,1.6258 3.08983,3.4515 1.65696,1.9395 2.19162,2.5401 3.17202,3.5628 0.97353,1.0155 1.54874,1.5657 1.84751,1.7674 0.23441,0.1582 0.63584,0.3028 1.08801,0.3918 0.45312,0.089 2.27393,0.088 3.58778,0 1.10545,-0.077 2.37681,-0.087 2.87519,-0.024 0.4651,0.059 0.94944,0.1898 1.2245,0.3308 0.62742,0.3216 1.2333,1.0788 2.2416,2.8013 0.92927,1.5875 1.34186,2.0999 1.93367,2.4013 0.37121,0.189 0.60435,0.2402 1.19216,0.2614 0.42557,0.016 0.70662,0 1.47266,-0.084 1.17129,-0.1272 2.26645,-0.1433 2.75888,-0.04 0.96175,0.2006 1.62256,0.5824 2.37791,1.3736 0.50425,0.5282 0.78537,0.8962 1.57824,2.0653 1.07165,1.5803 1.59652,2.2653 2.29569,2.9958 0.54978,0.5744 1.11406,1.0599 2.31476,1.9917 2.0286,1.5741 2.23467,1.7589 2.72991,2.4495 0.87312,1.2173 1.43016,2.4212 1.71935,3.7159 0.17053,0.7636 0.23976,1.4088 0.30157,2.811 0.0705,1.6002 0.14492,2.2474 0.35096,3.0533 0.33476,1.3093 1.02146,2.8851 1.90232,4.3652 0.1946,0.327 0.24116,0.3784 0.60172,0.6632 2.31432,1.8279 4.60487,4.7619 6.15981,7.8901 1.66676,3.3531 2.58886,6.8656 2.92314,11.1346 0.11116,1.4197 0.1298,1.9094 0.14877,3.9083 0.0246,2.5874 -0.0369,4.4379 -0.23645,7.1168 -0.47114,6.3264 -1.65813,14.1113 -3.24436,21.2781 -0.12378,0.5593 -0.25583,1.2082 -0.29346,1.4421 -0.24359,1.5139 -0.45398,3.6112 -0.57915,5.7734 -0.11187,1.9326 -0.12909,2.5361 -0.14835,5.2022 -0.0184,2.5427 -8.7e-4,4.3531 0.0976,9.9482 0.0203,1.1545 0.039,3.5284 0.0417,5.2752 0.004,3.0531 -0.0101,3.8408 -0.37937,20.3331 -0.21131,9.4364 -0.39539,17.0837 -0.40909,16.994 -0.0837,-0.5481 -0.40437,-10.2632 -0.51866,-15.7149 -0.097,-4.6271 -0.11349,-6.4221 -0.14071,-15.3148 -0.0172,-5.5982 -0.0444,-9.8938 -0.0661,-10.3861 -0.0574,-1.308 -0.10291,-2.0475 -0.21465,-3.4864 -0.24071,-3.0999 -0.30557,-4.5978 -0.38654,-8.926 -0.0488,-2.6106 -0.0718,-2.8098 -0.33736,-2.9254 -0.11877,-0.052 -0.15207,-0.052 -0.36066,0 -0.328,0.083 -0.9901,0.4379 -2.15829,1.1568 -0.55926,0.3442 -1.62431,0.9956 -2.36678,1.4477 -1.52638,0.9294 -1.95772,1.2226 -2.32848,1.5831 -0.31285,0.3042 -0.46509,0.5412 -0.51875,0.8077 -0.0577,0.2863 0.0437,0.5933 0.35294,1.0686 0.1306,0.2008 0.37208,0.5724 0.53661,0.8259 0.57433,0.8848 0.8578,1.6405 0.99794,2.6605 0.0735,0.5345 0.10578,2.6431 0.051,3.3296 -0.0899,1.1268 -0.29011,2.1769 -0.53293,2.7944 -0.11608,0.2952 -0.25342,0.5202 -0.31753,0.5202 -0.0206,0 -0.51752,0.198 -1.10424,0.4398 -2.32513,0.9587 -3.75049,1.4457 -4.59779,1.5705 -0.36072,0.053 -0.50885,0.03 -0.81157,-0.129 -0.25078,-0.1315 -0.91264,-0.3692 -2.64948,-0.9513 -1.26142,-0.4228 -2.05252,-0.7179 -3.08866,-1.1523 -0.87588,-0.3671 -1.22031,-0.4699 -1.5773,-0.4708 -0.33846,0 -0.53886,0.077 -0.71725,0.2786 -0.19765,0.2233 -0.28649,0.4495 -0.51303,1.3064 -0.31792,1.2026 -0.45721,1.525 -0.98153,2.2719 -0.16681,0.2377 -0.53225,0.7607 -0.81208,1.1623 -1.42591,2.0461 -2.25918,3.0922 -3.70978,4.6571 -0.85974,0.9274 -1.10349,1.306 -1.27956,1.9871 -0.0612,0.2366 -0.0753,0.3927 -0.0748,0.8214 8.7e-4,0.8005 0.13069,1.4626 0.67559,3.4499 1.15041,4.1958 1.60729,6.6524 2.01308,10.8243 0.55888,5.7459 1.22767,15.7246 2.60274,38.8343 0.0226,0.379 0.004,0.4872 -0.0399,0.2373 z m -133.90829,-19.4129 c 1.88618,-0.4945 3.74673,-1.3381 5.16695,-2.343 1.96513,-1.3904 3.22597,-3.1377 3.72111,-5.1568 0.1699,-0.6928 0.22321,-1.185 0.22363,-2.0647 8.7e-4,-1.8175 -0.29481,-3.0422 -1.40578,-5.8229 -0.82163,-2.0564 -1.88425,-4.2826 -2.96245,-6.2062 -2.47325,-4.4123 -5.61128,-8.3 -9.08646,-11.257 -5.03484,-4.2841 -10.65749,-6.679 -16.60514,-7.0726 -0.83336,-0.055 -3.07213,-0.023 -3.84171,0.056 -2.55071,0.26 -4.74606,0.7878 -7.15735,1.7208 -1.31812,0.5101 -1.72696,0.732 -2.59028,1.406 -2.36621,1.8473 -3.88895,4.5952 -4.45105,8.0322 -0.14615,0.8937 -0.19947,1.5351 -0.21964,2.6428 -0.019,1.0444 0.0111,1.7674 0.10361,2.4824 l 0.0424,0.3285 0.0261,-0.5658 c 0.17612,-3.8215 1.54166,-7.143 3.92485,-9.5465 0.99217,-1.0007 2.16158,-1.8468 3.40262,-2.4619 1.84966,-0.9167 3.8613,-1.4431 6.30509,-1.6498 0.68686,-0.058 2.82403,-0.059 3.54139,0 1.8599,0.1494 3.61786,0.4204 5.39756,0.8325 0.8589,0.1989 1.28509,0.3234 1.8617,0.5442 2.07303,0.7938 4.51034,2.2402 6.94143,4.1195 3.61473,2.7942 6.99671,6.2883 9.56214,9.8791 2.3628,3.3071 3.89748,6.4986 4.53653,9.434 0.0571,0.2627 0.16456,0.6419 0.23862,0.8426 0.25082,0.6799 0.41927,1.3832 0.49793,2.0788 0.0653,0.5772 0.0222,1.6545 -0.0873,2.1856 -0.22596,1.0954 -0.66504,2.0663 -1.3934,3.0811 -0.32489,0.4526 -1.36653,1.5429 -1.8712,1.9586 -1.15066,0.9476 -2.73228,1.8973 -4.17414,2.5063 -0.58456,0.2469 -0.53258,0.2495 0.35222,0.017 z M 271.571,3082.0947 c -0.008,-0.055 -0.0149,-0.018 -0.0151,0.081 0,0.1004 0.006,0.1459 0.0146,0.101 0.009,-0.045 0.009,-0.1271 0,-0.1826 z m 0.0245,-2.0174 c 0.0626,-1.861 0.50377,-9.7495 0.93186,-16.6655 0.15357,-2.481 0.18901,-2.7544 0.47418,-3.6579 0.56337,-1.7849 1.62761,-3.1583 4.36744,-5.6362 0.76907,-0.6956 0.79273,-0.7134 0.86811,-0.6571 0.0426,0.032 0.59231,0.6247 1.22156,1.3174 1.42991,1.5741 2.0961,2.2634 2.18761,2.2634 0.10443,0 0.24891,-0.2662 0.49391,-0.9102 0.40159,-1.0554 1.25778,-3.8687 1.92721,-6.3324 0.16208,-0.5965 0.19051,-0.673 0.21057,-0.5659 0.0128,0.068 0.3839,3.1779 0.82476,6.9108 0.44086,3.7328 0.8067,6.7595 0.81298,6.726 0.006,-0.033 -0.0136,-0.3442 -0.0441,-0.6904 -0.1235,-1.401 -0.22371,-2.9448 -0.30625,-4.7181 -0.0564,-1.21 -0.0568,-4.9631 -8.7e-4,-5.9506 0.16692,-2.9412 0.46268,-4.9308 0.98555,-6.6296 0.10499,-0.3411 0.12153,-0.3682 0.62509,-1.0227 3.53624,-4.5967 7.08403,-10.913 10.65038,-18.9613 2.18279,-4.926 4.47046,-10.8184 6.4417,-16.5923 0.51398,-1.5054 1.01041,-3.0047 0.99888,-3.0168 -0.006,-0.01 -0.15099,0.378 -0.32158,0.8545 -3.04703,8.5099 -7.28065,16.9557 -11.93583,23.8109 -2.08838,3.0753 -3.7581,5.2258 -6.50629,8.3795 -0.56046,0.6431 -1.91201,2.2038 -3.00346,3.4681 -3.64053,4.2173 -5.09351,5.8385 -7.18274,8.015 -1.85562,1.9331 -2.47461,2.52 -3.71862,3.526 -5.06322,4.0944 -10.30893,7.2301 -15.42791,9.2222 -0.83227,0.3239 -2.33479,0.8517 -2.68844,0.9444 -0.0849,0.022 -0.14776,0.047 -0.13967,0.056 0.008,0.01 0.42287,-0.067 0.92176,-0.1679 3.00724,-0.6075 5.35191,-0.9625 7.77948,-1.1778 0.31273,-0.028 1.0874,-0.046 1.91095,-0.047 1.15092,0 1.45613,0.01 1.80577,0.065 1.1083,0.1718 1.77327,0.4704 2.12073,0.9521 0.83478,1.1571 1.56349,4.7153 2.12053,10.3538 0.20097,2.0341 0.43314,5.222 0.49721,6.8268 0.0307,0.7693 0.0651,0.6662 0.0974,-0.2921 z m -19.74834,-15.881 c 0.61679,-0.1266 1.86224,-0.4385 1.8406,-0.461 -0.0134,-0.014 -1.85624,0.3963 -2.30342,0.5127 -0.34505,0.09 -0.0866,0.061 0.46282,-0.052 z m 34.13402,-0.8294 c -0.009,-0.036 -0.0167,-0.015 -0.0175,0.045 -8.8e-4,0.06 0.007,0.089 0.0162,0.065 0.01,-0.024 0.0102,-0.074 8.7e-4,-0.1094 z m -0.0346,-0.3471 c -0.009,-0.046 -0.0156,-0.017 -0.0159,0.063 0,0.081 0.006,0.1176 0.0152,0.082 0.009,-0.035 0.009,-0.1006 8.7e-4,-0.146 z m -71.3101,-26.9972 c 0.1783,-1.4988 0.77029,-3.3263 1.52405,-4.7047 1.01604,-1.8581 2.09388,-3.053 4.76395,-5.2815 3.35875,-2.8033 8.60069,-6.3551 13.77738,-9.3351 0.43599,-0.251 0.78883,-0.4604 0.7841,-0.4654 -0.004,-0.01 -0.20455,0.066 -0.44404,0.1578 -3.74138,1.4338 -8.4493,3.0254 -11.60313,3.9227 -3.45587,0.9832 -5.96205,1.3915 -8.48536,1.3824 -0.93957,0 -1.28051,-0.026 -1.27875,-0.088 8.8e-4,-0.041 0.54458,-0.4229 2.14303,-1.5061 4.25208,-2.8816 8.21113,-5.9905 11.37286,-8.9307 4.61075,-4.2876 9.71513,-10.2678 15.10044,-17.6918 1.3489,-1.8596 3.01415,-4.2476 3.78038,-5.4213 0.34582,-0.5297 0.33764,-0.5283 -0.10654,0.018 -3.07843,3.7881 -7.75729,8.8279 -11.73224,12.6375 -8.62754,8.2686 -16.83376,13.9276 -23.73266,16.366 -2.37626,0.8399 -4.67817,1.3835 -7.18756,1.6973 -4.21819,0.5275 -8.6218,0.3194 -13.16632,-0.6225 -3.14785,-0.6523 -6.51603,-1.7264 -9.0639,-2.8905 -0.24106,-0.11 -0.53296,-0.2435 -0.64867,-0.2964 l -0.21038,-0.096 0.12272,0.1134 c 0.2409,0.2225 1.32495,1.054 1.91096,1.4657 1.22009,0.8573 2.46318,1.6093 3.78684,2.2909 3.28663,1.6923 6.09293,2.5555 10.14677,3.1209 1.86562,0.2602 4.21915,0.4568 5.47624,0.4573 h 0.47562 l 0.4711,0.2482 c 1.22811,0.6473 2.5646,1.7003 3.85516,3.0374 1.86114,1.9283 4.8428,5.8601 7.67559,10.1215 0.23691,0.3564 0.43508,0.6481 0.44039,0.6481 0.005,0 0.0287,-0.1603 0.052,-0.356 z m -91.20346,-7.9038 c 0.14792,-0.6091 0.52952,-1.8186 0.79188,-2.5099 0.6268,-1.6513 1.82186,-3.7488 3.31755,-5.8228 0.18823,-0.261 0.33957,-0.4774 0.33631,-0.481 -0.004,0 -0.2188,0.05 -0.47898,0.1188 -2.09012,0.5532 -4.75284,0.8895 -7.05431,0.891 -1.85276,0 -2.6493,-0.1396 -6.37884,-1.1274 -1.54617,-0.4095 -2.49821,-0.6193 -3.36192,-0.7408 -0.88758,-0.1248 -2.29249,-0.1173 -3.50635,0.018 -3.74921,0.4203 -6.93014,1.0411 -9.922945,1.9364 -1.210046,0.362 -2.978893,0.986 -2.932361,1.0345 0.0079,0.01 0.233336,0 0.500526,-0.023 2.250938,-0.1769 5.55032,-0.222 8.12963,-0.111 5.39399,0.2322 9.69245,1.0263 13.1022,2.4203 2.79158,1.1414 5.32578,2.7957 7.02339,4.585 0.15382,0.1621 0.28803,0.2947 0.29822,0.2947 0.0101,0 0.0714,-0.2177 0.136,-0.4837 z m 9.37687,-11.4632 c 0.37323,-1.1922 0.61428,-2.4384 0.76799,-3.9701 0.0688,-0.6859 0.058,-2.7166 -0.0182,-3.4317 -0.18903,-1.7721 -0.59351,-3.4181 -1.20026,-4.884 -1.563,-3.7765 -6.18923,-8.3854 -10.76232,-10.722 -3.05261,-1.5598 -7.7239,-3.4374 -10.85212,-4.362 -1.55434,-0.4595 -2.53781,-0.6536 -4.15502,-0.8203 -2.4784,-0.2554 -5.34777,-0.2818 -8.047051,-0.073 -4.108562,0.3165 -8.596525,1.2017 -12.59678,2.4847 -1.232849,0.3954 -3.022136,1.0429 -3.094105,1.1196 -0.02336,0.025 -0.02336,0.031 0,0.018 0.01925,-0.011 0.421636,-0.087 0.894119,-0.1677 2.338603,-0.402 4.690254,-0.6563 7.538632,-0.8156 1.110909,-0.062 5.100253,-0.062 6.118569,0 2.813566,0.1713 4.901776,0.4255 7.121166,0.867 3.08994,0.6147 5.80581,1.4943 8.35933,2.7076 0.88367,0.4198 4.52919,2.314 5.57508,2.8967 4.05574,2.2597 6.65072,4.1524 8.71327,6.355 2.08827,2.2301 3.31044,4.4557 4.32949,7.8838 0.43604,1.4669 0.96303,4.0091 1.07204,5.1715 0.0136,0.1456 0.0357,0.2647 0.0491,0.2647 0.0134,0 0.0975,-0.2341 0.18711,-0.5202 z m 173.68921,-15.1777 c 0,-0.034 -0.0111,-0.028 -0.0301,0.018 -0.0166,0.04 -0.0301,0.098 -0.0301,0.1278 0,0.034 0.0111,0.028 0.0301,-0.018 0.0165,-0.04 0.0301,-0.098 0.0301,-0.1278 z m -95.2575,-1.4084 c 0.62237,-0.1225 1.36068,-0.4153 2.35781,-0.935 0.66747,-0.3478 1.11721,-0.6071 2.6689,-1.5387 0.63641,-0.3821 1.50308,-0.8896 1.92596,-1.1278 1.04744,-0.5898 1.3091,-0.7947 2.16505,-1.6956 0.91313,-0.961 1.59322,-1.8335 3.57951,-4.5919 1.44086,-2.001 2.23019,-3.0496 2.74687,-3.6493 0.68374,-0.7934 0.8431,-1.02 1.11766,-1.5892 0.5694,-1.1804 0.87396,-2.6566 0.97132,-4.7081 0.0459,-0.9656 0.005,-2.3922 -0.0944,-3.3434 -0.0274,-0.261 -0.0504,-0.4894 -0.051,-0.5076 -0.004,-0.1125 -0.61599,0.6784 -1.01574,1.3122 -0.89345,1.4166 -1.39642,2.7573 -1.68274,4.4855 -0.17368,1.0484 -0.41329,1.6772 -0.97493,2.5588 -0.6835,1.073 -1.29354,1.7554 -3.63843,4.0701 -2.37361,2.3431 -3.16945,3.1882 -4.38258,4.6543 -1.40729,1.7006 -2.36103,2.4776 -3.45409,2.814 -0.17851,0.055 -0.33815,0.07 -0.73633,0.071 -0.60401,0 -0.78317,-0.046 -1.47746,-0.3876 -0.54598,-0.2682 -0.63692,-0.2866 -0.87966,-0.1778 -0.15708,0.07 -0.22275,0.08 -0.44752,0.061 -1.10914,-0.09 -3.597,-1.312 -4.55882,-2.2393 -0.53271,-0.5134 -1.07441,-1.6808 -1.4202,-3.0605 -0.32109,-1.2811 -0.30443,-1.7719 0.0879,-2.592 0.17828,-0.3726 0.36217,-0.663 1.02277,-1.6149 0.41135,-0.5928 0.60133,-0.9358 0.77845,-1.4055 0.31854,-0.8448 1.27921,-2.1256 2.80969,-3.7461 0.87582,-0.9272 1.44929,-1.4783 2.1038,-2.0214 0.61236,-0.5081 0.99871,-0.9317 2.49013,-2.73 1.67222,-2.0163 3.06581,-3.59 3.75563,-4.2408 1.40058,-1.3214 3.09621,-2.1147 4.61363,-2.1582 l 0.30529,-0.01 0.2701,-0.4377 c 1.32081,-2.1404 2.71286,-4.8941 3.75534,-7.4287 1.79594,-4.3666 2.99649,-8.973 3.44427,-13.2156 0.29622,-2.8066 0.31506,-4.8567 0.0737,-8.0133 -0.0384,-0.5018 -0.0864,-1.1817 -0.1068,-1.5107 -0.2835,-4.5827 -2.51157,-8.826 -6.25891,-11.9203 -0.37495,-0.3096 -1.2974,-0.9683 -1.64451,-1.1743 l -0.17185,-0.102 0.33297,0.4539 c 1.84027,2.5087 3.59576,5.7973 4.65619,8.7227 0.50123,1.3828 0.88436,2.7503 1.14033,4.0705 0.4363,2.2503 0.50917,4.0177 0.24983,6.0601 -0.97434,7.6737 -3.04923,14.0619 -6.27155,19.3089 -0.61766,1.0057 -1.83383,2.7173 -2.1037,2.9604 -0.20142,0.1816 -1.14263,0.6561 -1.83293,0.924 -1.39812,0.5428 -3.46455,1.1946 -5.62313,1.7739 -0.41213,0.1105 -0.75287,0.2058 -0.75721,0.2118 -0.004,0.01 -0.29718,0.4544 -0.65077,0.9965 -4.7385,7.2651 -8.22091,12.5135 -8.53846,12.8687 -0.0628,0.07 -0.17602,0.2345 -0.25151,0.3651 -0.92132,1.593 -3.84027,7.8271 -4.24006,9.0557 -0.0874,0.2685 -0.10033,0.3623 -0.10033,0.7281 0,0.3841 0.008,0.4355 0.0933,0.6038 0.0513,0.1013 0.16427,0.2522 0.25103,0.3354 0.39772,0.3817 0.95457,0.5379 2.50502,0.7028 1.10799,0.1178 1.38614,0.1855 1.75304,0.4267 0.6209,0.4082 1.10622,0.6029 4.49657,1.8042 1.43928,0.51 2.4071,0.8721 3.3135,1.2401 0.30856,0.1252 0.60835,0.24 0.6662,0.2551 0.18095,0.047 0.55889,0.038 0.86394,-0.023 z m -71.15059,-6.0448 c -0.90984,-2.4629 -2.26754,-5.3786 -3.60119,-7.7336 -2.82826,-4.9943 -6.0946,-8.7888 -9.49757,-11.0334 -3.46903,-2.2881 -8.08076,-3.7278 -13.47728,-4.2072 -3.58445,-0.3185 -7.5358,-0.2212 -11.17168,0.2752 -0.91139,0.1244 -1.13104,0.1719 -0.82002,0.1769 0.62989,0.011 2.761,0.2275 4.19008,0.427 6.26943,0.8756 12.11624,2.7055 16.47981,5.158 5.41454,3.0431 11.04891,8.2448 16.11806,14.8803 0.53959,0.7063 1.43556,1.946 1.79934,2.4898 0.135,0.2017 0.25058,0.3622 0.25686,0.3564 0.006,-0.01 -0.1181,-0.3609 -0.27641,-0.7894 z m 18.98887,-3.1499 c 1.38539,-0.1231 2.72567,-0.2981 4.05337,-0.5293 l 0.82044,-0.1429 1.94602,-0.7894 c 1.07032,-0.4342 1.98547,-0.8157 2.03368,-0.8478 0.30311,-0.2017 2.79754,-2.2012 4.0849,-3.2744 4.27077,-3.5601 7.83747,-6.8438 10.88724,-10.0235 1.14999,-1.1989 1.61711,-1.7274 2.17917,-2.4658 1.8592,-2.4422 3.47235,-5.6707 4.62427,-9.2544 0.24013,-0.7472 0.52476,-1.7292 0.52476,-1.8106 0,-0.015 -0.12821,0.1687 -0.28494,0.408 -0.82568,1.2609 -1.85292,2.6605 -2.79787,3.812 -1.58051,1.926 -3.3094,3.6344 -4.7188,4.6629 -1.55339,1.1337 -3.62905,2.0643 -5.83807,2.6174 -0.49579,0.1242 -1.44457,0.318 -1.46293,0.2989 -0.0412,-0.043 -0.87724,-1.7599 -1.21964,-2.5048 -1.8854,-4.1017 -2.8454,-7.0545 -2.94979,-9.0732 l -0.0227,-0.4393 0.26546,-0.6215 c 2.74263,-6.4209 4.92605,-15.4446 6.36803,-26.3181 0.40873,-3.0821 0.76744,-6.506 0.98624,-9.4133 0.0406,-0.5391 0.0683,-0.9859 0.0614,-0.993 -0.007,-0.01 -0.081,0.3027 -0.16506,0.6882 -1.15791,5.3136 -3.12648,12.3096 -5.0407,17.9139 -2.92242,8.5561 -6.00556,15.3212 -11.03084,24.2041 -3.55874,6.2906 -8.46366,13.9342 -12.51968,19.5102 -0.42468,0.5838 -0.41872,0.4834 -0.0586,0.9884 1.20563,1.6909 2.98089,2.9182 4.75071,3.2846 0.36684,0.076 0.76037,0.1284 1.35069,0.1803 0.36191,0.032 2.5888,-0.016 3.17325,-0.067 z"
       id="path817"
       inkscape:connector-curvature="0" />
  </g>
</svg>
